<svg width="102" height="24" viewBox="0 0 102 24" fill="none" xmlns="http://www.w3.org/2000/svg">
<path fill-rule="evenodd" clip-rule="evenodd" d="M8.59412 21.3458C9.43237 20.5056 10.0969 19.5077 10.5495 18.4093C11.0021 17.3109 11.234 16.1336 11.2317 14.9452V13.6598H15.3569V14.9462C15.3562 16.1348 15.5892 17.3119 16.0426 18.4102C16.496 19.5084 17.1608 20.5062 17.9992 21.3465C18.8375 22.1869 19.8328 22.8532 20.9281 23.3075C22.0235 23.7617 23.1974 23.995 24.3827 23.9938H29.7993C31.7985 23.9926 33.7292 23.2631 35.2321 21.9411C36.735 20.619 37.7078 18.7945 37.9694 16.807C38.231 14.8196 37.7637 12.8044 36.6544 11.1366C35.5451 9.46882 33.8693 8.26193 31.9389 7.74051L36.5811 3.08552C36.6304 3.03753 36.6697 2.9802 36.6967 2.91687C36.7237 2.85353 36.7379 2.78545 36.7385 2.71656C36.7391 2.64768 36.7261 2.57936 36.7001 2.51557C36.6742 2.45178 36.6359 2.39378 36.5874 2.34495L34.4088 0.156047C34.3154 0.0602264 34.1886 0.00439001 34.055 0.000248005C33.9215 -0.003894 33.7915 0.0439803 33.6924 0.13383L24.2667 9.58241L24.2509 9.59828C24.1614 9.69589 24.1128 9.82427 24.1152 9.95682C24.1175 10.0894 24.1707 10.2159 24.2635 10.3103L26.4685 12.5214C26.5544 12.608 26.6682 12.6611 26.7896 12.6714C26.9109 12.6817 27.032 12.6484 27.1311 12.5775C27.1533 12.5584 27.1744 12.5394 27.1997 12.5214C27.5084 12.2638 27.8541 12.0544 28.2252 11.9004C29.1068 11.5342 30.0878 11.4857 31.0011 11.7632C31.9143 12.0408 32.7034 12.6272 33.234 13.4225C33.7646 14.2179 34.0038 15.1731 33.911 16.1255C33.8182 17.0779 33.399 17.9686 32.7249 18.6459C31.9509 19.421 30.9037 19.8592 29.8098 19.8657H24.3933C23.0934 19.8643 21.8473 19.3457 20.9284 18.4237C20.0096 17.5017 19.4932 16.2518 19.4926 14.9483V11.5925C19.4926 11.0437 19.2752 10.5173 18.8882 10.1293C18.5012 9.74118 17.9763 9.52316 17.429 9.52316H7.6277C7.49096 9.52344 7.3599 9.57804 7.2632 9.675C7.16651 9.77196 7.11207 9.90338 7.11179 10.0405V14.9452C7.10923 15.6626 6.95062 16.3708 6.64703 17.0204C6.34345 17.67 5.9022 18.2454 5.35405 18.7064C4.8059 19.1675 4.16405 19.503 3.47327 19.6897C2.78249 19.8764 2.05941 19.9098 1.35445 19.7874C1.23991 19.7777 1.12545 19.8071 1.02969 19.8709C0.933919 19.9347 0.862467 20.029 0.826936 20.1387L0.0166676 23.175C-0.000478461 23.2412 -0.00444487 23.3101 0.0049956 23.3779C0.0144361 23.4456 0.037098 23.5108 0.071686 23.5698C0.106274 23.6287 0.15211 23.6803 0.206573 23.7214C0.261036 23.7626 0.323059 23.7926 0.389095 23.8098C0.600103 23.851 0.81111 23.8881 1.04005 23.9156C2.41123 24.1059 3.80777 23.9734 5.11898 23.5284C6.43019 23.0835 7.62001 22.3384 8.59412 21.3521V21.3458Z" fill="#0169D1"/>
<path fill-rule="evenodd" clip-rule="evenodd" d="M21.3541 6.65419L23.5497 4.45259L23.5655 4.43355C23.6379 4.35344 23.6834 4.2526 23.6957 4.1452C23.708 4.03779 23.6865 3.92923 23.6341 3.83475L23.4305 3.63056L21.6569 1.85214L21.2096 1.40357L21.2033 1.39722C21.1067 1.30123 20.9763 1.24726 20.8403 1.24699H9.16953C8.6225 1.24699 8.09787 1.4649 7.71105 1.85278C7.32424 2.24066 7.10693 2.76675 7.10693 3.31529C7.10693 3.86384 7.32424 4.38992 7.71105 4.7778C8.09787 5.16568 8.6225 5.38359 9.16953 5.38359H12.1405C12.2022 5.38355 12.2638 5.38037 12.3251 5.37407H19.3401L20.6188 6.65631C20.7159 6.7536 20.8476 6.80825 20.9849 6.80825C21.1222 6.80825 21.2539 6.7536 21.351 6.65631L21.3541 6.65419Z" fill="#0169D1"/>
<path fill-rule="evenodd" clip-rule="evenodd" d="M40.1929 8.26029L40.9937 11.2617L41 11.2871C41.0352 11.3951 41.1047 11.4885 41.1978 11.5531C41.291 11.6177 41.4027 11.6498 41.5159 11.6447C41.5539 11.6383 41.5908 11.632 41.6214 11.6288H41.6436C41.8232 11.6079 42.004 11.5984 42.1848 11.6003C42.7261 11.6003 43.2621 11.7072 43.7622 11.9149C44.2623 12.1226 44.7167 12.4271 45.0995 12.8109C45.4823 13.1947 45.7859 13.6504 45.9931 14.1519C46.2002 14.6534 46.3068 15.1909 46.3068 15.7337C46.3068 16.2765 46.2002 16.814 45.9931 17.3155C45.7859 17.817 45.4823 18.2726 45.0995 18.6564C44.7167 19.0403 44.2623 19.3447 43.7622 19.5525C43.2621 19.7602 42.7261 19.8671 42.1848 19.8671C41.8237 19.868 41.4641 19.8218 41.115 19.7296C40.9186 19.6772 40.7263 19.61 40.54 19.5285L40.521 19.519C40.4057 19.4717 40.2773 19.4679 40.1594 19.5081C40.0415 19.5484 39.9421 19.63 39.8795 19.738L38.3255 22.4284C38.2913 22.487 38.269 22.5518 38.26 22.6191C38.2509 22.6864 38.2552 22.7549 38.2727 22.8205C38.2902 22.8861 38.3204 22.9476 38.3617 23.0014C38.403 23.0552 38.4545 23.1003 38.5133 23.1341C39.0041 23.3797 39.5184 23.575 40.0483 23.717C41.1821 24.0208 42.3675 24.0785 43.5252 23.8862C44.683 23.6939 45.7865 23.256 46.762 22.6018C47.7375 21.9477 48.5626 21.0923 49.1821 20.0928C49.8016 19.0933 50.2012 17.9728 50.3543 16.8061C50.5074 15.6393 50.4104 14.4533 50.0698 13.3271C49.7292 12.201 49.1528 11.1607 48.3792 10.2758C47.6056 9.39088 46.6526 8.68171 45.5838 8.19566C44.5151 7.70962 43.3552 7.45789 42.1816 7.45731C41.8226 7.45907 41.4641 7.48522 41.1087 7.53559C40.9177 7.56098 40.7299 7.59167 40.5516 7.62658C40.4207 7.66212 40.309 7.74779 40.2405 7.86514C40.172 7.98249 40.1523 8.12212 40.1855 8.25394V8.26029H40.1929Z" fill="#0169D1"/>
<path fill-rule="evenodd" clip-rule="evenodd" d="M60.1701 21.3458C61.0084 20.5056 61.6729 19.5077 62.1255 18.4093C62.5781 17.3109 62.81 16.1336 62.8077 14.9452V13.6598H66.9329V14.9462C66.9322 16.1348 67.1652 17.3119 67.6186 18.4102C68.072 19.5084 68.7369 20.5062 69.5752 21.3465C70.4135 22.1869 71.4088 22.8532 72.5041 23.3075C73.5995 23.7617 74.7734 23.995 75.9588 23.9938H81.3753C83.3744 23.9923 85.3049 23.2626 86.8076 21.9405C88.3103 20.6184 89.2829 18.7939 89.5444 16.8065C89.8059 14.8191 89.3385 12.8041 88.2292 11.1364C87.1199 9.46871 85.4442 8.26191 83.5139 7.74051L88.156 3.08552C88.2053 3.03753 88.2446 2.9802 88.2716 2.91687C88.2987 2.85353 88.3129 2.78545 88.3135 2.71656C88.3141 2.64768 88.301 2.57936 88.2751 2.51557C88.2491 2.45178 88.2108 2.39378 88.1624 2.34495L85.9795 0.156047C85.8861 0.0602264 85.7593 0.00439001 85.6258 0.000248005C85.4922 -0.003894 85.3622 0.0439803 85.2631 0.13383L75.8416 9.58241L75.8258 9.59828C75.7364 9.69589 75.6878 9.82427 75.6901 9.95682C75.6925 10.0894 75.7456 10.2159 75.8385 10.3103L78.0435 12.5214C78.1294 12.608 78.2432 12.6611 78.3645 12.6714C78.4859 12.6817 78.6069 12.6484 78.7061 12.5775C78.7282 12.5584 78.7493 12.5394 78.7746 12.5214C79.0833 12.2638 79.4291 12.0544 79.8001 11.9004C80.6818 11.5342 81.6627 11.4857 82.576 11.7632C83.4893 12.0408 84.2784 12.6272 84.8089 13.4225C85.3395 14.2179 85.5788 15.1731 85.4859 16.1255C85.3931 17.0779 84.974 17.9686 84.2999 18.6459C83.5258 19.4209 82.4786 19.8591 81.3848 19.8657H75.9683C74.6684 19.8643 73.4222 19.3457 72.5034 18.4237C71.5846 17.5017 71.0682 16.2518 71.0676 14.9483V11.5925C71.0676 11.0437 70.8502 10.5173 70.4632 10.1293C70.0762 9.74118 69.5513 9.52316 69.0039 9.52316H59.2027C59.0659 9.52344 58.9348 9.57804 58.8382 9.675C58.7415 9.77196 58.687 9.90338 58.6867 10.0405V14.9452C58.684 15.6625 58.5253 16.3706 58.2216 17.0202C57.918 17.6697 57.4767 18.245 56.9286 18.706C56.3805 19.167 55.7388 19.5026 55.0481 19.6893C54.3573 19.8761 53.6343 19.9096 52.9294 19.7874C52.8149 19.7777 52.7004 19.8071 52.6046 19.8709C52.5089 19.9347 52.4374 20.029 52.4019 20.1387L51.5948 23.1708C51.5776 23.237 51.5737 23.3059 51.5831 23.3736C51.5926 23.4414 51.6152 23.5066 51.6498 23.5655C51.6844 23.6245 51.7302 23.676 51.7847 23.7172C51.8392 23.7584 51.9012 23.7884 51.9672 23.8055C52.1782 23.8468 52.3892 23.8838 52.6182 23.9113C53.9902 24.1021 55.3877 23.9696 56.6997 23.5242C58.0117 23.0789 59.2021 22.333 60.1765 21.3458H60.1701Z" fill="#0169D1"/>
<path fill-rule="evenodd" clip-rule="evenodd" d="M72.9251 6.65419L75.1206 4.45259L75.1364 4.43355C75.2088 4.35344 75.2543 4.2526 75.2666 4.1452C75.2789 4.03779 75.2574 3.92923 75.205 3.83475L75.0014 3.63056L73.2279 1.85214L72.7805 1.40357L72.7742 1.39722C72.6776 1.30123 72.5472 1.24726 72.4113 1.24699H60.7457C60.1987 1.24699 59.674 1.4649 59.2872 1.85278C58.9004 2.24066 58.6831 2.76675 58.6831 3.31529C58.6831 3.86384 58.9004 4.38992 59.2872 4.7778C59.674 5.16568 60.1987 5.38359 60.7457 5.38359H63.7167C63.7784 5.38355 63.84 5.38037 63.9013 5.37407H70.9205L72.1992 6.65631C72.2963 6.7536 72.428 6.80825 72.5653 6.80825C72.7026 6.80825 72.8342 6.7536 72.9314 6.65631L72.9251 6.65419Z" fill="#0169D1"/>
<path fill-rule="evenodd" clip-rule="evenodd" d="M91.7691 8.26029L92.5699 11.2617L92.5762 11.2871C92.6114 11.3951 92.6809 11.4885 92.7741 11.5531C92.8673 11.6177 92.979 11.6498 93.0921 11.6447C93.1301 11.6383 93.167 11.632 93.1976 11.6288H93.2198C93.3994 11.6079 93.5802 11.5984 93.761 11.6003C94.3023 11.6003 94.8384 11.7072 95.3385 11.9149C95.8386 12.1226 96.293 12.4271 96.6757 12.8109C97.0585 13.1947 97.3622 13.6504 97.5693 14.1519C97.7765 14.6534 97.8831 15.1909 97.8831 15.7337C97.8831 16.2765 97.7765 16.814 97.5693 17.3155C97.3622 17.817 97.0585 18.2726 96.6757 18.6564C96.293 19.0403 95.8386 19.3447 95.3385 19.5525C94.8384 19.7602 94.3023 19.8671 93.761 19.8671C93.4 19.868 93.0404 19.8217 92.6912 19.7296C92.4944 19.6772 92.3019 19.61 92.1152 19.5285L92.0962 19.519C91.9809 19.4717 91.8525 19.4679 91.7346 19.5081C91.6167 19.5484 91.5173 19.63 91.4547 19.738L89.9007 22.4284C89.8665 22.487 89.8442 22.5518 89.8352 22.6191C89.8261 22.6864 89.8305 22.7549 89.8479 22.8205C89.8654 22.8861 89.8956 22.9476 89.9369 23.0014C89.9782 23.0552 90.0297 23.1003 90.0885 23.1341C90.5793 23.3796 91.0936 23.5749 91.6235 23.717C92.7573 24.0208 93.9427 24.0785 95.1004 23.8862C96.2582 23.6939 97.3617 23.256 98.3372 22.6018C99.3128 21.9477 100.138 21.0923 100.757 20.0928C101.377 19.0933 101.776 17.9728 101.929 16.8061C102.083 15.6393 101.986 14.4533 101.645 13.3271C101.304 12.201 100.728 11.1607 99.9544 10.2758C99.1808 9.39088 98.2278 8.68171 97.1591 8.19566C96.0903 7.70962 94.9304 7.45789 93.7568 7.45731C93.3978 7.45907 93.0393 7.48523 92.6838 7.53559C92.4929 7.56098 92.3051 7.59167 92.1268 7.62658C91.9959 7.66212 91.8842 7.74779 91.8157 7.86514C91.7472 7.98249 91.7275 8.12212 91.7607 8.25394V8.26029H91.7691Z" fill="#0169D1"/>
</svg>
