<svg width="29" height="24" viewBox="0 0 29 24" fill="none" xmlns="http://www.w3.org/2000/svg">
<g id="Layer_x0020_18">
<path id="Path 8023" fill-rule="evenodd" clip-rule="evenodd" d="M5.39794 7.95941C5.39736 8.41159 5.48622 8.85945 5.65943 9.27728C5.83264 9.69512 6.0868 10.0747 6.40733 10.3943L14.9412 17.7189L23.4755 10.3943C24.0128 9.85759 24.3575 9.15896 24.4563 8.40676C24.5552 7.65457 24.4025 6.89084 24.0221 6.23403C23.6417 5.57723 23.0548 5.06404 22.3524 4.77406C21.6499 4.48407 20.8713 4.4335 20.1371 4.63018C19.9469 4.68083 19.7443 4.654 19.5739 4.55557C19.4035 4.45715 19.2793 4.2952 19.2285 4.10536C19.1778 3.91551 19.2047 3.71333 19.3033 3.54327C19.4019 3.37321 19.5642 3.24922 19.7544 3.19857C20.8046 2.91798 21.9182 2.99102 22.9225 3.40636C23.9269 3.8217 24.7658 4.55613 25.3094 5.49579C25.8529 6.43545 26.0706 7.52782 25.9288 8.60354C25.7869 9.67925 25.2934 10.6782 24.5247 11.4455C24.499 11.4713 24.4714 11.4951 24.4421 11.5168L15.6852 19.0319V24L25.4953 15.5799C26.5959 14.6375 27.4791 13.4684 28.084 12.153C28.689 10.8377 29.0016 9.40723 29.0001 7.95992C29.0002 6.33002 28.4988 4.73939 27.5639 3.403C26.629 2.0666 25.3055 1.04887 23.7723 0.487322C22.2392 -0.0742222 20.5702 -0.152501 18.9911 0.263064C17.4119 0.678629 15.9986 1.568 14.9422 2.811C13.8858 1.56797 12.4724 0.678582 10.8932 0.263031C9.31399 -0.152519 7.645 -0.0741984 6.11182 0.48741C4.57863 1.04902 3.25516 2.06684 2.32026 3.40331C1.38537 4.73979 0.88413 6.33049 0.884281 7.96043C0.883046 9.40773 1.19575 10.8382 1.80092 12.1534C2.40609 13.4687 3.28937 14.6376 4.39009 15.5799L14.1987 24V19.0314L5.44183 11.5173C5.41254 11.4956 5.3849 11.4718 5.35916 11.446C4.59051 10.6787 4.097 9.67976 3.95514 8.60404C3.81327 7.52833 4.03099 6.43596 4.57452 5.4963C5.11805 4.55664 5.95704 3.82221 6.96138 3.40687C7.96573 2.99153 9.07933 2.91849 10.1295 3.19908C10.2251 3.22274 10.315 3.26516 10.394 3.32385C10.473 3.38255 10.5395 3.45635 10.5896 3.54095C10.6397 3.62556 10.6724 3.71928 10.6859 3.81664C10.6994 3.914 10.6932 4.01307 10.6679 4.10805C10.6426 4.20304 10.5987 4.29205 10.5385 4.36989C10.4784 4.44773 10.4034 4.51285 10.3178 4.56145C10.2322 4.61005 10.1377 4.64115 10.04 4.65296C9.94219 4.66476 9.84304 4.65701 9.7483 4.63018C9.23663 4.49341 8.70029 4.47593 8.18077 4.5791C7.66124 4.68226 7.17246 4.90331 6.75221 5.22513C6.33197 5.54696 5.99154 5.96095 5.75723 6.43507C5.52293 6.9092 5.40105 7.43076 5.401 7.95941H5.39794Z" fill="#EA131B"/>
</g>
</svg>
